%TF.GenerationSoftware,KiCad,Pcbnew,10.0.1*%
%TF.CreationDate,2026-09-08T10:50:47-03:00*%
%TF.ProjectId,AmpyFil,416d7079-4669-46c2-9e6b-696361645f70,rev?*%
%TF.SameCoordinates,Original*%
%TF.FileFunction,Copper,L2,Bot*%
%TF.FilePolarity,Positive*%
%FSLAX46Y46*%
G04 Gerber Fmt 4.6, Leading zero omitted, Abs format (unit mm)*
G04 Created by KiCad (PCBNEW 10.0.1) date 2026-09-08 10:50:47*
%MOMM*%
%LPD*%
G01*
G04 APERTURE LIST*
G04 Aperture macros list*
%AMRoundRect*
0 Rectangle with rounded corners*
0 $1 Rounding radius*
0 $2 $3 $4 $5 $6 $7 $8 $9 X,Y pos of 4 corners*
0 Add a 4 corners polygon primitive as box body*
4,1,4,$2,$3,$4,$5,$6,$7,$8,$9,$2,$3,0*
0 Add four circle primitives for the rounded corners*
1,1,$1+$1,$2,$3*
1,1,$1+$1,$4,$5*
1,1,$1+$1,$6,$7*
1,1,$1+$1,$8,$9*
0 Add four rect primitives between the rounded corners*
20,1,$1+$1,$2,$3,$4,$5,0*
20,1,$1+$1,$4,$5,$6,$7,0*
20,1,$1+$1,$6,$7,$8,$9,0*
20,1,$1+$1,$8,$9,$2,$3,0*%
G04 Aperture macros list end*
%TA.AperFunction,ComponentPad*%
%ADD10RoundRect,0.250000X0.550000X0.550000X-0.550000X0.550000X-0.550000X-0.550000X0.550000X-0.550000X0*%
%TD*%
%TA.AperFunction,ComponentPad*%
%ADD11C,1.600000*%
%TD*%
%TA.AperFunction,ComponentPad*%
%ADD12RoundRect,0.250000X1.050000X1.050000X-1.050000X1.050000X-1.050000X-1.050000X1.050000X-1.050000X0*%
%TD*%
%TA.AperFunction,ComponentPad*%
%ADD13C,2.600000*%
%TD*%
%TA.AperFunction,ComponentPad*%
%ADD14RoundRect,0.250000X-1.050000X1.050000X-1.050000X-1.050000X1.050000X-1.050000X1.050000X1.050000X0*%
%TD*%
%TA.AperFunction,ComponentPad*%
%ADD15RoundRect,0.250000X-0.550000X-0.550000X0.550000X-0.550000X0.550000X0.550000X-0.550000X0.550000X0*%
%TD*%
%TA.AperFunction,ComponentPad*%
%ADD16RoundRect,0.250000X1.050000X-1.050000X1.050000X1.050000X-1.050000X1.050000X-1.050000X-1.050000X0*%
%TD*%
%TA.AperFunction,Conductor*%
%ADD17C,0.800000*%
%TD*%
G04 APERTURE END LIST*
D10*
%TO.P,U9,1*%
%TO.N,Salida AMP*%
X90120000Y-100000000D03*
D11*
%TO.P,U9,2,-_2*%
%TO.N,Net-(U9A--)*%
X90120000Y-97460000D03*
%TO.P,U9,3,+_3*%
%TO.N,Net-(U9A-+)*%
X90120000Y-94920000D03*
%TO.P,U9,4*%
%TO.N,N/C*%
X90120000Y-92380000D03*
%TO.P,U9,5*%
X82500000Y-92380000D03*
%TO.P,U9,6*%
X82500000Y-94920000D03*
%TO.P,U9,7*%
X82500000Y-97460000D03*
%TO.P,U9,8*%
X82500000Y-100000000D03*
%TD*%
D12*
%TO.P,J8,1,Pin_1_1*%
%TO.N,Net-(J8-Pin_1)*%
X150840000Y-70470000D03*
D13*
%TO.P,J8,2,Pin_2_2*%
%TO.N,unconnected-(J8-Pin_2-Pad2)*%
X145760000Y-70470000D03*
%TD*%
D10*
%TO.P,U8,1*%
%TO.N,Net-(U9A-+)*%
X110000000Y-102740000D03*
D11*
%TO.P,U8,2,-_2*%
%TO.N,Net-(U8A--)*%
X110000000Y-100200000D03*
%TO.P,U8,3,+_3*%
%TO.N,Net-(U8A-+)*%
X110000000Y-97660000D03*
%TO.P,U8,4*%
%TO.N,N/C*%
X110000000Y-95120000D03*
%TO.P,U8,5*%
X110000000Y-92580000D03*
%TO.P,U8,6*%
X110000000Y-90040000D03*
%TO.P,U8,7*%
X110000000Y-87500000D03*
%TO.P,U8,8*%
X102380000Y-87500000D03*
%TO.P,U8,9*%
X102380000Y-90040000D03*
%TO.P,U8,10*%
X102380000Y-92580000D03*
%TO.P,U8,11*%
X102380000Y-95120000D03*
%TO.P,U8,12*%
X102380000Y-97660000D03*
%TO.P,U8,13*%
X102380000Y-100200000D03*
%TO.P,U8,14*%
X102380000Y-102740000D03*
%TD*%
%TO.P,R6,1*%
%TO.N,Electrodo +*%
X153125000Y-93105000D03*
%TO.P,R6,2*%
%TO.N,Net-(U3-A)*%
X160745000Y-93105000D03*
%TD*%
D14*
%TO.P,J10,1,Pin_1_1*%
%TO.N,Net-(J10-Pin_1)*%
X182577500Y-86205000D03*
D13*
%TO.P,J10,2,Pin_2_2*%
%TO.N,unconnected-(J10-Pin_2-Pad2)*%
X182577500Y-91285000D03*
%TD*%
D10*
%TO.P,U7,1*%
%TO.N,Net-(R9-Pad1)*%
X126620000Y-102200000D03*
D11*
%TO.P,U7,2,-_2*%
%TO.N,Net-(U7A--)*%
X126620000Y-99660000D03*
%TO.P,U7,3,+_3*%
%TO.N,Net-(U7A-+)*%
X126620000Y-97120000D03*
%TO.P,U7,4*%
%TO.N,N/C*%
X126620000Y-94580000D03*
%TO.P,U7,5*%
X126620000Y-92040000D03*
%TO.P,U7,6*%
X126620000Y-89500000D03*
%TO.P,U7,7*%
X126620000Y-86960000D03*
%TO.P,U7,8*%
X119000000Y-86960000D03*
%TO.P,U7,9*%
X119000000Y-89500000D03*
%TO.P,U7,10*%
X119000000Y-92040000D03*
%TO.P,U7,11*%
X119000000Y-94580000D03*
%TO.P,U7,12*%
X119000000Y-97120000D03*
%TO.P,U7,13*%
X119000000Y-99660000D03*
%TO.P,U7,14*%
X119000000Y-102200000D03*
%TD*%
%TO.P,C4,1*%
%TO.N,Net-(J8-Pin_1)*%
X119000000Y-77000000D03*
%TO.P,C4,2*%
%TO.N,Net-(U8A-+)*%
X119000000Y-82000000D03*
%TD*%
D14*
%TO.P,J9,1,Pin_1_1*%
%TO.N,Net-(J9-Pin_1)*%
X182577500Y-99705000D03*
D13*
%TO.P,J9,2,Pin_2_2*%
%TO.N,unconnected-(J9-Pin_2-Pad2)*%
X182577500Y-104785000D03*
%TD*%
D11*
%TO.P,R11,1*%
%TO.N,Net-(U9A--)*%
X97000000Y-83810000D03*
%TO.P,R11,2*%
%TO.N,Net-(J8-Pin_1)*%
X97000000Y-76190000D03*
%TD*%
%TO.P,R10,1*%
%TO.N,Net-(J8-Pin_1)*%
X112000000Y-75000000D03*
%TO.P,R10,2*%
%TO.N,Net-(U8A--)*%
X112000000Y-82620000D03*
%TD*%
D10*
%TO.P,U5,1,Rg_1*%
%TO.N,Net-(Rg2-Pad1)*%
X150500000Y-99080000D03*
D11*
%TO.P,U5,2,-_2*%
%TO.N,Electrodo -*%
X150500000Y-96540000D03*
%TO.P,U5,3,+_3*%
%TO.N,Electrodo +*%
X150500000Y-94000000D03*
%TO.P,U5,4,Vs-_4*%
%TO.N,Net-(J8-Pin_1)*%
X150500000Y-91460000D03*
%TO.P,U5,5,Ref_5*%
%TO.N,2\u002C5V*%
X142880000Y-91460000D03*
%TO.P,U5,6*%
%TO.N,Net-(C3-Pad1)*%
X142880000Y-94000000D03*
%TO.P,U5,7,Vs+_7*%
%TO.N,unconnected-(U5-Vs+-Pad7)*%
X142880000Y-96540000D03*
%TO.P,U5,8,Rg_8*%
%TO.N,Net-(Rg2-Pad2)*%
X142880000Y-99080000D03*
%TD*%
%TO.P,R8,1*%
%TO.N,Net-(U7A--)*%
X131190000Y-105000000D03*
%TO.P,R8,2*%
%TO.N,Net-(J8-Pin_1)*%
X138810000Y-105000000D03*
%TD*%
%TO.P,Rg2,1*%
%TO.N,Net-(Rg2-Pad1)*%
X150310000Y-105000000D03*
%TO.P,Rg2,2*%
%TO.N,Net-(Rg2-Pad2)*%
X142690000Y-105000000D03*
%TD*%
%TO.P,R9,1*%
%TO.N,Net-(R9-Pad1)*%
X122570000Y-106970000D03*
%TO.P,R9,2*%
%TO.N,Net-(U8A-+)*%
X114950000Y-106970000D03*
%TD*%
%TO.P,R12,1*%
%TO.N,Net-(U9A--)*%
X97000000Y-92190000D03*
%TO.P,R12,2*%
%TO.N,Salida AMP*%
X97000000Y-99810000D03*
%TD*%
%TO.P,C3,1*%
%TO.N,Net-(C3-Pad1)*%
X136500000Y-97000000D03*
%TO.P,C3,2*%
%TO.N,Net-(U7A-+)*%
X131500000Y-97000000D03*
%TD*%
%TO.P,R7,1*%
%TO.N,Net-(J8-Pin_1)*%
X139810000Y-83500000D03*
%TO.P,R7,2*%
%TO.N,Net-(U7A-+)*%
X132190000Y-83500000D03*
%TD*%
D15*
%TO.P,U3,1,A4_1*%
%TO.N,unconnected-(U3-A4-Pad1)*%
X164380000Y-87630000D03*
D11*
%TO.P,U3,2,A6_2*%
%TO.N,unconnected-(U3-A6-Pad2)*%
X164380000Y-90170000D03*
%TO.P,U3,3,A_3*%
%TO.N,Net-(U3-A)*%
X164380000Y-92710000D03*
%TO.P,U3,4,A7_4*%
%TO.N,unconnected-(U3-A7-Pad4)*%
X164380000Y-95250000D03*
%TO.P,U3,5,A5_5*%
%TO.N,unconnected-(U3-A5-Pad5)*%
X164380000Y-97790000D03*
%TO.P,U3,6,~{E}_6*%
%TO.N,unconnected-(U3-~{E}-Pad6)*%
X164380000Y-100330000D03*
%TO.P,U3,7,VEE_7*%
%TO.N,unconnected-(U3-VEE-Pad7)*%
X164380000Y-102870000D03*
%TO.P,U3,8,GND_8*%
%TO.N,unconnected-(U3-GND-Pad8)*%
X164380000Y-105410000D03*
%TO.P,U3,9,S2_9*%
%TO.N,unconnected-(U3-S2-Pad9)*%
X172000000Y-105410000D03*
%TO.P,U3,10,S1_10*%
%TO.N,unconnected-(U3-S1-Pad10)*%
X172000000Y-102870000D03*
%TO.P,U3,11,S0_11*%
%TO.N,unconnected-(U3-S0-Pad11)*%
X172000000Y-100330000D03*
%TO.P,U3,12,A3_12*%
%TO.N,unconnected-(U3-A3-Pad12)*%
X172000000Y-97790000D03*
%TO.P,U3,13,A0_13*%
%TO.N,Net-(J9-Pin_1)*%
X172000000Y-95250000D03*
%TO.P,U3,14,A1_14*%
%TO.N,Net-(J10-Pin_1)*%
X172000000Y-92710000D03*
%TO.P,U3,15,A2_15*%
%TO.N,Net-(J11-Pin_1)*%
X172000000Y-90170000D03*
%TO.P,U3,16,VCC_16*%
%TO.N,unconnected-(U3-VCC-Pad16)*%
X172000000Y-87630000D03*
%TD*%
D16*
%TO.P,J11,1,Pin_1_1*%
%TO.N,Net-(J11-Pin_1)*%
X182750000Y-78250000D03*
D13*
%TO.P,J11,2,Pin_2_2*%
%TO.N,unconnected-(J11-Pin_2-Pad2)*%
X182750000Y-73170000D03*
%TD*%
%TO.N,Net-(J11-Pin_1)*%
D17*
X175500000Y-86670000D02*
X172000000Y-90170000D01*
X175500000Y-82250000D02*
X175500000Y-86670000D01*
X179500000Y-78250000D02*
X175500000Y-82250000D01*
X182750000Y-78250000D02*
X179500000Y-78250000D01*
%TO.N,Net-(J10-Pin_1)*%
X174460000Y-92710000D02*
X172000000Y-92710000D01*
X174500000Y-92750000D02*
X174460000Y-92710000D01*
X181045000Y-86205000D02*
X174500000Y-92750000D01*
X182577500Y-86205000D02*
X181045000Y-86205000D01*
%TO.N,Net-(J9-Pin_1)*%
X182577500Y-99705000D02*
X176455000Y-99705000D01*
X176455000Y-99705000D02*
X172000000Y-95250000D01*
%TO.N,Electrodo +*%
X151395000Y-93105000D02*
X150500000Y-94000000D01*
X153125000Y-93105000D02*
X151395000Y-93105000D01*
%TO.N,Net-(U3-A)*%
X161140000Y-92710000D02*
X160745000Y-93105000D01*
X164380000Y-92710000D02*
X161140000Y-92710000D01*
%TO.N,Net-(J10-Pin_1)*%
X172005000Y-92705000D02*
X172000000Y-92710000D01*
%TO.N,Salida AMP*%
X97000000Y-99810000D02*
X90310000Y-99810000D01*
X90310000Y-99810000D02*
X90120000Y-100000000D01*
%TO.N,Net-(U9A--)*%
X87010000Y-95481370D02*
X88988630Y-97460000D01*
X97000000Y-92190000D02*
X95190000Y-90380000D01*
X88988630Y-97460000D02*
X90120000Y-97460000D01*
X95170000Y-90380000D02*
X94260000Y-89470000D01*
X88010000Y-89470000D02*
X87010000Y-90470000D01*
X87010000Y-90470000D02*
X87010000Y-95481370D01*
X94260000Y-89470000D02*
X88010000Y-89470000D01*
X97000000Y-92190000D02*
X97000000Y-83810000D01*
X95190000Y-90380000D02*
X95170000Y-90380000D01*
%TO.N,Net-(U9A-+)*%
X99510000Y-104720000D02*
X99510000Y-96970000D01*
X99510000Y-96970000D02*
X97460000Y-94920000D01*
X100760000Y-105970000D02*
X99510000Y-104720000D01*
X97460000Y-94920000D02*
X90120000Y-94920000D01*
X109010000Y-105970000D02*
X100760000Y-105970000D01*
X110000000Y-102740000D02*
X110000000Y-104980000D01*
X110000000Y-104980000D02*
X109010000Y-105970000D01*
%TO.N,Net-(J8-Pin_1)*%
X150840000Y-83380000D02*
X150840000Y-70470000D01*
X117730000Y-72720000D02*
X120010000Y-75000000D01*
X97000000Y-76190000D02*
X106540000Y-76190000D01*
X135540000Y-75000000D02*
X140510000Y-79970000D01*
X112000000Y-75000000D02*
X120010000Y-75000000D01*
X150500000Y-83720000D02*
X150840000Y-83380000D01*
X125790000Y-77000000D02*
X128760000Y-79970000D01*
X150500000Y-85220000D02*
X151000000Y-85720000D01*
X146750000Y-79970000D02*
X150500000Y-83720000D01*
X120010000Y-75000000D02*
X135540000Y-75000000D01*
X139810000Y-83500000D02*
X146030000Y-83500000D01*
X156260000Y-103330000D02*
X152590000Y-107000000D01*
X128760000Y-79970000D02*
X140510000Y-79970000D01*
X140810000Y-107000000D02*
X138810000Y-105000000D01*
X150500000Y-87970000D02*
X150500000Y-85220000D01*
X140510000Y-79970000D02*
X146750000Y-79970000D01*
X146030000Y-83500000D02*
X150500000Y-87970000D01*
X150500000Y-85220000D02*
X150500000Y-83720000D01*
X150500000Y-91460000D02*
X150500000Y-87970000D01*
X152590000Y-107000000D02*
X140810000Y-107000000D01*
X106540000Y-76190000D02*
X110010000Y-72720000D01*
X151000000Y-85720000D02*
X153260000Y-85720000D01*
X153260000Y-85720000D02*
X156260000Y-88720000D01*
X156260000Y-88720000D02*
X156260000Y-103330000D01*
X119000000Y-77000000D02*
X125790000Y-77000000D01*
X110010000Y-72720000D02*
X117730000Y-72720000D01*
%TO.N,Net-(U8A--)*%
X110860000Y-82620000D02*
X107010000Y-86470000D01*
X107010000Y-98970000D02*
X107070000Y-98970000D01*
X108300000Y-100200000D02*
X110000000Y-100200000D01*
X107010000Y-86470000D02*
X107010000Y-98970000D01*
X112000000Y-82620000D02*
X110860000Y-82620000D01*
X107070000Y-98970000D02*
X108300000Y-100200000D01*
%TO.N,Net-(U8A-+)*%
X113760000Y-97580000D02*
X113760000Y-87240000D01*
X113680000Y-97660000D02*
X113760000Y-97580000D01*
X114950000Y-99270000D02*
X113760000Y-98080000D01*
X113760000Y-98080000D02*
X113760000Y-97580000D01*
X113760000Y-87240000D02*
X119000000Y-82000000D01*
X110000000Y-97660000D02*
X113680000Y-97660000D01*
X114950000Y-106970000D02*
X114950000Y-99270000D01*
%TO.N,Net-(R9-Pad1)*%
X126620000Y-105360000D02*
X126620000Y-102200000D01*
X125010000Y-106970000D02*
X126620000Y-105360000D01*
X122570000Y-106970000D02*
X125010000Y-106970000D01*
%TO.N,Net-(U7A--)*%
X131190000Y-105000000D02*
X131190000Y-103098630D01*
X127751370Y-99660000D02*
X126620000Y-99660000D01*
X131190000Y-103098630D02*
X127751370Y-99660000D01*
%TO.N,Net-(U7A-+)*%
X126620000Y-97120000D02*
X131380000Y-97120000D01*
X131380000Y-97120000D02*
X131500000Y-97000000D01*
X132190000Y-96310000D02*
X131500000Y-97000000D01*
X126740000Y-97000000D02*
X126620000Y-97120000D01*
X132190000Y-83500000D02*
X132190000Y-96310000D01*
%TO.N,Net-(Rg2-Pad1)*%
X150310000Y-99270000D02*
X150500000Y-99080000D01*
X150310000Y-105000000D02*
X150310000Y-99270000D01*
%TO.N,Electrodo -*%
X151040000Y-97080000D02*
X150500000Y-96540000D01*
%TO.N,Net-(C3-Pad1)*%
X136500000Y-97000000D02*
X138500000Y-97000000D01*
X141500000Y-94000000D02*
X142880000Y-94000000D01*
X138500000Y-97000000D02*
X141500000Y-94000000D01*
%TO.N,Net-(Rg2-Pad2)*%
X142690000Y-105000000D02*
X142690000Y-99270000D01*
X142690000Y-99270000D02*
X142880000Y-99080000D01*
%TD*%
M02*
