%TF.GenerationSoftware,KiCad,Pcbnew,10.0.1*%
%TF.CreationDate,2026-08-26T14:05:36-03:00*%
%TF.ProjectId,ServosyADC,53657276-6f73-4794-9144-432e6b696361,rev?*%
%TF.SameCoordinates,Original*%
%TF.FileFunction,Copper,L2,Bot*%
%TF.FilePolarity,Positive*%
%FSLAX46Y46*%
G04 Gerber Fmt 4.6, Leading zero omitted, Abs format (unit mm)*
G04 Created by KiCad (PCBNEW 10.0.1) date 2026-08-26 14:05:36*
%MOMM*%
%LPD*%
G01*
G04 APERTURE LIST*
G04 Aperture macros list*
%AMRoundRect*
0 Rectangle with rounded corners*
0 $1 Rounding radius*
0 $2 $3 $4 $5 $6 $7 $8 $9 X,Y pos of 4 corners*
0 Add a 4 corners polygon primitive as box body*
4,1,4,$2,$3,$4,$5,$6,$7,$8,$9,$2,$3,0*
0 Add four circle primitives for the rounded corners*
1,1,$1+$1,$2,$3*
1,1,$1+$1,$4,$5*
1,1,$1+$1,$6,$7*
1,1,$1+$1,$8,$9*
0 Add four rect primitives between the rounded corners*
20,1,$1+$1,$2,$3,$4,$5,0*
20,1,$1+$1,$4,$5,$6,$7,0*
20,1,$1+$1,$6,$7,$8,$9,0*
20,1,$1+$1,$8,$9,$2,$3,0*%
%AMFreePoly0*
4,1,37,0.603843,0.796157,0.639018,0.796157,0.711114,0.766294,0.766294,0.711114,0.796157,0.639018,0.796157,0.603843,0.800000,0.600000,0.800000,-0.600000,0.796157,-0.603843,0.796157,-0.639018,0.766294,-0.711114,0.711114,-0.766294,0.639018,-0.796157,0.603843,-0.796157,0.600000,-0.800000,0.000000,-0.800000,0.000000,-0.796148,-0.078414,-0.796148,-0.232228,-0.765552,-0.377117,-0.705537,
-0.507515,-0.618408,-0.618408,-0.507515,-0.705537,-0.377117,-0.765552,-0.232228,-0.796148,-0.078414,-0.796148,0.078414,-0.765552,0.232228,-0.705537,0.377117,-0.618408,0.507515,-0.507515,0.618408,-0.377117,0.705537,-0.232228,0.765552,-0.078414,0.796148,0.000000,0.796148,0.000000,0.800000,0.600000,0.800000,0.603843,0.796157,0.603843,0.796157,$1*%
%AMFreePoly1*
4,1,37,0.000000,0.796148,0.078414,0.796148,0.232228,0.765552,0.377117,0.705537,0.507515,0.618408,0.618408,0.507515,0.705537,0.377117,0.765552,0.232228,0.796148,0.078414,0.796148,-0.078414,0.765552,-0.232228,0.705537,-0.377117,0.618408,-0.507515,0.507515,-0.618408,0.377117,-0.705537,0.232228,-0.765552,0.078414,-0.796148,0.000000,-0.796148,0.000000,-0.800000,-0.600000,-0.800000,
-0.603843,-0.796157,-0.639018,-0.796157,-0.711114,-0.766294,-0.766294,-0.711114,-0.796157,-0.639018,-0.796157,-0.603843,-0.800000,-0.600000,-0.800000,0.600000,-0.796157,0.603843,-0.796157,0.639018,-0.766294,0.711114,-0.711114,0.766294,-0.639018,0.796157,-0.603843,0.796157,-0.600000,0.800000,0.000000,0.800000,0.000000,0.796148,0.000000,0.796148,$1*%
G04 Aperture macros list end*
%TA.AperFunction,ComponentPad*%
%ADD10R,1.700000X1.700000*%
%TD*%
%TA.AperFunction,ComponentPad*%
%ADD11C,1.700000*%
%TD*%
%TA.AperFunction,ComponentPad*%
%ADD12RoundRect,0.150000X-0.350000X-0.350000X0.350000X-0.350000X0.350000X0.350000X-0.350000X0.350000X0*%
%TD*%
%TA.AperFunction,ComponentPad*%
%ADD13C,1.400000*%
%TD*%
%TA.AperFunction,ComponentPad*%
%ADD14RoundRect,0.200000X-0.600000X-0.600000X0.600000X-0.600000X0.600000X0.600000X-0.600000X0.600000X0*%
%TD*%
%TA.AperFunction,ComponentPad*%
%ADD15C,1.600000*%
%TD*%
%TA.AperFunction,ComponentPad*%
%ADD16FreePoly0,0.000000*%
%TD*%
%TA.AperFunction,ComponentPad*%
%ADD17FreePoly1,0.000000*%
%TD*%
%TA.AperFunction,ComponentPad*%
%ADD18RoundRect,0.250000X1.050000X-1.050000X1.050000X1.050000X-1.050000X1.050000X-1.050000X-1.050000X0*%
%TD*%
%TA.AperFunction,ComponentPad*%
%ADD19C,2.600000*%
%TD*%
%TA.AperFunction,Conductor*%
%ADD20C,0.800000*%
%TD*%
G04 APERTURE END LIST*
D10*
%TO.P,J1,1,Pin_1_1*%
%TO.N,GND*%
X111390000Y-51850000D03*
D11*
%TO.P,J1,2,Pin_2_2*%
%TO.N,Net-(J1-Pin_2)*%
X111390000Y-54390000D03*
%TO.P,J1,3,Pin_3_3*%
%TO.N,Net-(A1-GPIO2)*%
X111390000Y-56930000D03*
%TD*%
D10*
%TO.P,J4,1,Pin_1_1*%
%TO.N,GND*%
X110890000Y-89310000D03*
D11*
%TO.P,J4,2,Pin_2_2*%
%TO.N,Net-(J1-Pin_2)*%
X110890000Y-91850000D03*
%TO.P,J4,3,Pin_3_3*%
%TO.N,Net-(A1-GPIO5)*%
X110890000Y-94390000D03*
%TD*%
D12*
%TO.P,U1,1,ADDR_1*%
%TO.N,Net-(A1-AGND)*%
X158045001Y-84140001D03*
%TO.P,U1,2,ALERT/RDY_2*%
%TO.N,Net-(U1-ALERT{slash}RDY)*%
X158045001Y-86140001D03*
%TO.P,U1,3,GND_3*%
%TO.N,Net-(A1-AGND)*%
X158045002Y-88140001D03*
%TO.P,U1,4,AIN0_4*%
%TO.N,Salida AMP*%
X158045002Y-90140001D03*
%TO.P,U1,5,AIN1_5*%
%TO.N,unconnected-(U1-AIN1-Pad5)*%
X158045003Y-92140001D03*
%TO.P,U1,6,AIN2_6*%
%TO.N,unconnected-(U1-AIN2-Pad6)*%
X158045001Y-93890001D03*
%TO.P,U1,7,AIN3_7*%
%TO.N,unconnected-(U1-AIN3-Pad7)*%
X158045001Y-95640001D03*
%TO.P,U1,8,VDD_8*%
%TO.N,Net-(U1-VDD)*%
X158045002Y-97640001D03*
%TO.P,U1,9,SDA_9*%
%TO.N,Net-(U1-SDA)*%
X158045002Y-99640001D03*
%TO.P,U1,10,SCL_10*%
%TO.N,Net-(U1-SCL)*%
X158045003Y-101640001D03*
%TD*%
D10*
%TO.P,J5,1,Pin_1_1*%
%TO.N,GND*%
X110390000Y-102350000D03*
D11*
%TO.P,J5,2,Pin_2_2*%
%TO.N,Net-(J1-Pin_2)*%
X110390000Y-104890000D03*
%TO.P,J5,3,Pin_3_3*%
%TO.N,Net-(A1-GPIO6)*%
X110390000Y-107430000D03*
%TD*%
D13*
%TO.P,R3,1*%
%TO.N,+3.3V*%
X148810000Y-89390000D03*
%TO.P,R3,2*%
%TO.N,Net-(U1-VDD)*%
X153890000Y-89390000D03*
%TD*%
%TO.P,R1,1*%
%TO.N,Net-(A1-GPIO17)*%
X151850000Y-102430000D03*
%TO.P,R1,2*%
%TO.N,Net-(U1-ALERT{slash}RDY)*%
X151850000Y-97350000D03*
%TD*%
%TO.P,R2,1*%
%TO.N,Net-(A1-GPIO16)*%
X148850000Y-93390000D03*
%TO.P,R2,2*%
%TO.N,Net-(U1-SDA)*%
X153930000Y-93390000D03*
%TD*%
D10*
%TO.P,J2,1,Pin_1_1*%
%TO.N,GND*%
X111390000Y-64100000D03*
D11*
%TO.P,J2,2,Pin_2_2*%
%TO.N,Net-(J1-Pin_2)*%
X111390000Y-66640000D03*
%TO.P,J2,3,Pin_3_3*%
%TO.N,Net-(A1-GPIO3)*%
X111390000Y-69180000D03*
%TD*%
D14*
%TO.P,A1,1,GPIO0_1*%
%TO.N,unconnected-(A1-GPIO0-Pad1)*%
X125470000Y-66780000D03*
D15*
%TO.P,A1,2,GPIO1_2*%
%TO.N,unconnected-(A1-GPIO1-Pad2)*%
X125470000Y-69320000D03*
D16*
%TO.P,A1,3,GND_3*%
%TO.N,GND*%
X125470000Y-71860000D03*
D15*
%TO.P,A1,4,GPIO2_4*%
%TO.N,Net-(A1-GPIO2)*%
X125470000Y-74400000D03*
%TO.P,A1,5,GPIO3_5*%
%TO.N,Net-(A1-GPIO3)*%
X125470000Y-76940000D03*
%TO.P,A1,6,GPIO4_6*%
%TO.N,Net-(A1-GPIO4)*%
X125470000Y-79480000D03*
%TO.P,A1,7,GPIO5_7*%
%TO.N,Net-(A1-GPIO5)*%
X125470000Y-82020000D03*
D16*
%TO.P,A1,8,GND_8*%
%TO.N,GND*%
X125470000Y-84560000D03*
D15*
%TO.P,A1,9,GPIO6_9*%
%TO.N,Net-(A1-GPIO6)*%
X125470000Y-87100000D03*
%TO.P,A1,10,GPIO7_10*%
%TO.N,Net-(A1-GPIO7)*%
X125470000Y-89640000D03*
%TO.P,A1,11,GPIO8_11*%
%TO.N,unconnected-(A1-GPIO8-Pad11)*%
X125470000Y-92180000D03*
%TO.P,A1,12,GPIO9_12*%
%TO.N,unconnected-(A1-GPIO9-Pad12)*%
X125470000Y-94720000D03*
D16*
%TO.P,A1,13,GND_13*%
%TO.N,GND*%
X125470000Y-97260000D03*
D15*
%TO.P,A1,14,GPIO10_14*%
%TO.N,unconnected-(A1-GPIO10-Pad14)*%
X125470000Y-99800000D03*
%TO.P,A1,15,GPIO11_15*%
%TO.N,unconnected-(A1-GPIO11-Pad15)*%
X125470000Y-102340000D03*
%TO.P,A1,16,GPIO12_16*%
%TO.N,unconnected-(A1-GPIO12-Pad16)*%
X125470000Y-104880000D03*
%TO.P,A1,17,GPIO13_17*%
%TO.N,unconnected-(A1-GPIO13-Pad17)*%
X125470000Y-107420000D03*
D16*
%TO.P,A1,18,GND_18*%
%TO.N,GND*%
X125470000Y-109960000D03*
D15*
%TO.P,A1,19,GPIO14_19*%
%TO.N,unconnected-(A1-GPIO14-Pad19)*%
X125470000Y-112500000D03*
%TO.P,A1,20,GPIO15_20*%
%TO.N,unconnected-(A1-GPIO15-Pad20)*%
X125470000Y-115040000D03*
%TO.P,A1,21,GPIO16_21*%
%TO.N,Net-(A1-GPIO16)*%
X143250000Y-115040000D03*
%TO.P,A1,22,GPIO17_22*%
%TO.N,Net-(A1-GPIO17)*%
X143250000Y-112500000D03*
D17*
%TO.P,A1,23,GND_23*%
%TO.N,GND*%
X143250000Y-109960000D03*
D15*
%TO.P,A1,24,GPIO18_24*%
%TO.N,S0 MUX*%
X143250000Y-107420000D03*
%TO.P,A1,25,GPIO19_25*%
%TO.N,S1 MUX*%
X143250000Y-104880000D03*
%TO.P,A1,26,GPIO20_26*%
%TO.N,S2 MUX*%
X143250000Y-102340000D03*
%TO.P,A1,27,GPIO21_27*%
%TO.N,unconnected-(A1-GPIO21-Pad27)*%
X143250000Y-99800000D03*
D17*
%TO.P,A1,28,GND_28*%
%TO.N,GND*%
X143250000Y-97260000D03*
D15*
%TO.P,A1,29,GPIO22_29*%
%TO.N,unconnected-(A1-GPIO22-Pad29)*%
X143250000Y-94720000D03*
%TO.P,A1,30,RUN_30*%
%TO.N,unconnected-(A1-RUN-Pad30)*%
X143250000Y-92180000D03*
%TO.P,A1,31,GPIO26_ADC0_31*%
%TO.N,unconnected-(A1-GPIO26_ADC0-Pad31)*%
X143250000Y-89640000D03*
%TO.P,A1,32,GPIO27_ADC1_32*%
%TO.N,unconnected-(A1-GPIO27_ADC1-Pad32)*%
X143250000Y-87100000D03*
D17*
%TO.P,A1,33,AGND_33*%
%TO.N,Net-(A1-AGND)*%
X143250000Y-84560000D03*
D15*
%TO.P,A1,34,GPIO28_ADC2_34*%
%TO.N,unconnected-(A1-GPIO28_ADC2-Pad34)*%
X143250000Y-82020000D03*
%TO.P,A1,35,ADC_VREF_35*%
%TO.N,unconnected-(A1-ADC_VREF-Pad35)*%
X143250000Y-79480000D03*
%TO.P,A1,36,3V3_36*%
%TO.N,+3.3V*%
X143250000Y-76940000D03*
%TO.P,A1,37,3V3_EN_37*%
%TO.N,unconnected-(A1-3V3_EN-Pad37)*%
X143250000Y-74400000D03*
D17*
%TO.P,A1,38,GND_38*%
%TO.N,GND*%
X143250000Y-71860000D03*
D15*
%TO.P,A1,39,VSYS_39*%
%TO.N,unconnected-(A1-VSYS-Pad39)*%
X143250000Y-69320000D03*
%TO.P,A1,40,VBUS_40*%
%TO.N,+5V*%
X143250000Y-66780000D03*
%TD*%
D13*
%TO.P,R4,1*%
%TO.N,Net-(U1-ALERT{slash}RDY)*%
X161850000Y-86140000D03*
%TO.P,R4,2*%
%TO.N,Net-(U1-SCL)*%
X166930000Y-86140000D03*
%TD*%
D10*
%TO.P,J3,1,Pin_1_1*%
%TO.N,GND*%
X111140000Y-76350000D03*
D11*
%TO.P,J3,2,Pin_2_2*%
%TO.N,Net-(J1-Pin_2)*%
X111140000Y-78890000D03*
%TO.P,J3,3,Pin_3_3*%
%TO.N,Net-(A1-GPIO4)*%
X111140000Y-81430000D03*
%TD*%
D10*
%TO.P,J6,1,Pin_1_1*%
%TO.N,GND*%
X110140000Y-115600000D03*
D11*
%TO.P,J6,2,Pin_2_2*%
%TO.N,Net-(J1-Pin_2)*%
X110140000Y-118140000D03*
%TO.P,J6,3,Pin_3_3*%
%TO.N,Net-(A1-GPIO7)*%
X110140000Y-120680000D03*
%TD*%
D18*
%TO.P,J7,1,Pin_1_1*%
%TO.N,Net-(J1-Pin_2)*%
X123500000Y-131970000D03*
D19*
%TO.P,J7,2,Pin_2_2*%
%TO.N,GND*%
X123500000Y-126890000D03*
%TD*%
%TO.N,Net-(A1-GPIO3)*%
D20*
X111390000Y-69180000D02*
X117430000Y-69180000D01*
%TO.N,Net-(J1-Pin_2)*%
X110890000Y-91850000D02*
X112450000Y-91850000D01*
%TO.N,GND*%
X110390000Y-102350000D02*
X106180000Y-102350000D01*
%TO.N,Net-(A1-AGND)*%
X162537006Y-84140000D02*
X158045000Y-84140000D01*
%TO.N,Net-(J1-Pin_2)*%
X126750000Y-124890000D02*
X125250000Y-123390000D01*
%TO.N,+3.3V*%
X148810000Y-81368630D02*
X144381370Y-76940000D01*
%TO.N,Net-(A1-AGND)*%
X163750000Y-86927006D02*
X163750000Y-85352994D01*
%TO.N,Net-(A1-GPIO16)*%
X143250000Y-115040000D02*
X148600000Y-115040000D01*
%TO.N,Net-(A1-GPIO5)*%
X120750000Y-82390000D02*
X121120000Y-82020000D01*
%TO.N,GND*%
X108390000Y-126890000D02*
X106140000Y-124640000D01*
X110140000Y-115600000D02*
X106350000Y-115600000D01*
%TO.N,Net-(J1-Pin_2)*%
X111140000Y-78890000D02*
X112700000Y-78890000D01*
%TO.N,Net-(U1-ALERT{slash}RDY)*%
X158045000Y-86140000D02*
X153390000Y-86140000D01*
%TO.N,Net-(J1-Pin_2)*%
X110780862Y-78890000D02*
X111140000Y-78890000D01*
%TO.N,+3.3V*%
X148810000Y-89390000D02*
X148810000Y-81368630D01*
%TO.N,GND*%
X113400000Y-51850000D02*
X121250000Y-59700000D01*
%TO.N,Net-(J1-Pin_2)*%
X111890000Y-104890000D02*
X116640000Y-100140000D01*
X107890000Y-119187919D02*
X108937919Y-118140000D01*
X112700000Y-78890000D02*
X115390000Y-76200000D01*
%TO.N,Net-(A1-GPIO6)*%
X110390000Y-107430000D02*
X116600000Y-107430000D01*
%TO.N,Net-(J1-Pin_2)*%
X115390000Y-76200000D02*
X115390000Y-72890000D01*
X116640000Y-98890000D02*
X115390000Y-97640000D01*
%TO.N,Net-(U1-VDD)*%
X158045001Y-97640000D02*
X157431654Y-97640000D01*
%TO.N,Net-(A1-GPIO3)*%
X118500000Y-72640000D02*
X122800000Y-76940000D01*
X118500000Y-69890000D02*
X118500000Y-72640000D01*
%TO.N,Net-(J1-Pin_2)*%
X108140000Y-105937919D02*
X109187919Y-104890000D01*
%TO.N,GND*%
X106350000Y-115600000D02*
X106140000Y-115390000D01*
%TO.N,Net-(J1-Pin_2)*%
X110390000Y-104890000D02*
X111890000Y-104890000D01*
%TO.N,Net-(A1-AGND)*%
X147640000Y-73735000D02*
X147640000Y-64890000D01*
%TO.N,GND*%
X106180000Y-64100000D02*
X106140000Y-64140000D01*
X110890000Y-89310000D02*
X106560000Y-89310000D01*
X111140000Y-76350000D02*
X106180000Y-76350000D01*
X121250000Y-70890000D02*
X122220000Y-71860000D01*
%TO.N,Net-(A1-GPIO7)*%
X118210000Y-120680000D02*
X122250000Y-116640000D01*
%TO.N,Net-(A1-GPIO4)*%
X118460000Y-81430000D02*
X120410000Y-79480000D01*
%TO.N,Net-(U1-SDA)*%
X158045001Y-99640000D02*
X155640000Y-99640000D01*
%TO.N,Net-(J1-Pin_2)*%
X108890000Y-67640000D02*
X109890000Y-66640000D01*
%TO.N,Net-(U1-SDA)*%
X155640000Y-99640000D02*
X153930000Y-97930000D01*
%TO.N,GND*%
X111390000Y-64100000D02*
X106180000Y-64100000D01*
X106180000Y-76350000D02*
X106140000Y-76390000D01*
%TO.N,Net-(A1-GPIO5)*%
X118750000Y-87249138D02*
X120750000Y-85249138D01*
%TO.N,Net-(J1-Pin_2)*%
X110140000Y-118140000D02*
X111700000Y-118140000D01*
%TO.N,Net-(A1-GPIO4)*%
X120410000Y-79480000D02*
X125470000Y-79480000D01*
%TO.N,GND*%
X106140000Y-115390000D02*
X106140000Y-102390000D01*
X106140000Y-53640000D02*
X107930000Y-51850000D01*
%TO.N,Net-(J1-Pin_2)*%
X108937919Y-118140000D02*
X110140000Y-118140000D01*
%TO.N,Net-(A1-AGND)*%
X158045000Y-84140000D02*
X147640000Y-73735000D01*
%TO.N,Net-(A1-GPIO6)*%
X120500000Y-103890000D02*
X120500000Y-89140000D01*
%TO.N,Net-(U1-ALERT{slash}RDY)*%
X153390000Y-86140000D02*
X151850000Y-87680000D01*
%TO.N,Net-(A1-GPIO16)*%
X150622994Y-100090000D02*
X148850000Y-98317006D01*
%TO.N,Net-(A1-GPIO5)*%
X116750000Y-94390000D02*
X118750000Y-92390000D01*
%TO.N,Net-(A1-AGND)*%
X142390000Y-64390000D02*
X140640000Y-66140000D01*
%TO.N,Net-(A1-GPIO5)*%
X118750000Y-92390000D02*
X118750000Y-87249138D01*
%TO.N,Net-(J1-Pin_2)*%
X110890000Y-72890000D02*
X108890000Y-70890000D01*
%TO.N,GND*%
X106180000Y-102350000D02*
X106140000Y-102390000D01*
%TO.N,Net-(A1-GPIO4)*%
X111500000Y-81430000D02*
X118460000Y-81430000D01*
%TO.N,Net-(J1-Pin_2)*%
X115640000Y-88660000D02*
X115640000Y-85140000D01*
X109890000Y-66640000D02*
X111390000Y-66640000D01*
%TO.N,GND*%
X106140000Y-88890000D02*
X106140000Y-76390000D01*
%TO.N,Net-(J1-Pin_2)*%
X115390000Y-97640000D02*
X108390000Y-97640000D01*
%TO.N,GND*%
X107930000Y-51850000D02*
X111390000Y-51850000D01*
%TO.N,Net-(A1-GPIO16)*%
X152550000Y-100090000D02*
X150622994Y-100090000D01*
%TO.N,Net-(J1-Pin_2)*%
X112640000Y-110890000D02*
X108140000Y-110890000D01*
X114390000Y-66640000D02*
X116390000Y-64640000D01*
%TO.N,Net-(A1-GPIO5)*%
X110890000Y-94390000D02*
X116390000Y-94390000D01*
%TO.N,Net-(J1-Pin_2)*%
X113640000Y-111890000D02*
X112640000Y-110890000D01*
%TO.N,Net-(U1-SDA)*%
X153930000Y-97930000D02*
X153930000Y-93390000D01*
%TO.N,Net-(J1-Pin_2)*%
X108390000Y-56187919D02*
X110187919Y-54390000D01*
X109140000Y-84890000D02*
X109090000Y-84840000D01*
X126750000Y-128720000D02*
X126750000Y-124890000D01*
%TO.N,Net-(A1-AGND)*%
X147640000Y-64890000D02*
X147140000Y-64390000D01*
%TO.N,GND*%
X106140000Y-102390000D02*
X106140000Y-88890000D01*
%TO.N,Net-(A1-GPIO7)*%
X122250000Y-90390000D02*
X123000000Y-89640000D01*
%TO.N,Net-(U1-VDD)*%
X157431654Y-97640000D02*
X155830000Y-96038346D01*
%TO.N,Net-(J1-Pin_2)*%
X112450000Y-91850000D02*
X115640000Y-88660000D01*
%TO.N,Net-(A1-GPIO5)*%
X120750000Y-85249138D02*
X120750000Y-82390000D01*
%TO.N,Net-(J1-Pin_2)*%
X109687919Y-91850000D02*
X110890000Y-91850000D01*
X108390000Y-58890000D02*
X108390000Y-56187919D01*
%TO.N,Net-(A1-GPIO16)*%
X148850000Y-93390000D02*
X148850000Y-98317006D01*
%TO.N,Net-(J1-Pin_2)*%
X123500000Y-131970000D02*
X126750000Y-128720000D01*
%TO.N,GND*%
X106140000Y-64140000D02*
X106140000Y-53640000D01*
%TO.N,Net-(J1-Pin_2)*%
X111390000Y-66640000D02*
X114390000Y-66640000D01*
%TO.N,Net-(U1-SCL)*%
X158045002Y-101640000D02*
X158658349Y-101640000D01*
%TO.N,+3.3V*%
X142961572Y-76940000D02*
X143250000Y-76940000D01*
%TO.N,Net-(A1-AGND)*%
X162537006Y-88140000D02*
X163750000Y-86927006D01*
%TO.N,Net-(A1-GPIO3)*%
X122800000Y-76940000D02*
X125470000Y-76940000D01*
%TO.N,Net-(A1-GPIO7)*%
X123000000Y-89640000D02*
X125470000Y-89640000D01*
%TO.N,Net-(J1-Pin_2)*%
X116390000Y-61640000D02*
X115390000Y-60640000D01*
X115390000Y-84890000D02*
X109140000Y-84890000D01*
%TO.N,GND*%
X122220000Y-71860000D02*
X125470000Y-71860000D01*
%TO.N,Net-(A1-GPIO5)*%
X121120000Y-82020000D02*
X125470000Y-82020000D01*
%TO.N,Net-(J1-Pin_2)*%
X125250000Y-123390000D02*
X108250000Y-123390000D01*
X108390000Y-97640000D02*
X108390000Y-93147919D01*
%TO.N,GND*%
X106140000Y-124640000D02*
X106140000Y-115390000D01*
%TO.N,Net-(A1-GPIO17)*%
X147140000Y-112500000D02*
X143250000Y-112500000D01*
%TO.N,Net-(A1-GPIO6)*%
X122540000Y-87100000D02*
X125470000Y-87100000D01*
%TO.N,Net-(A1-AGND)*%
X158045001Y-88140000D02*
X162537006Y-88140000D01*
%TO.N,Net-(A1-GPIO7)*%
X110500000Y-120680000D02*
X118210000Y-120680000D01*
%TO.N,Net-(U1-ALERT{slash}RDY)*%
X151850000Y-87680000D02*
X151850000Y-97350000D01*
%TO.N,Net-(A1-GPIO3)*%
X117790000Y-69180000D02*
X118500000Y-69890000D01*
%TO.N,GND*%
X106560000Y-89310000D02*
X106140000Y-88890000D01*
%TO.N,Net-(A1-AGND)*%
X142445000Y-84560000D02*
X143250000Y-84560000D01*
%TO.N,Net-(A1-GPIO17)*%
X151850000Y-102430000D02*
X151850000Y-107790000D01*
%TO.N,Net-(A1-AGND)*%
X147140000Y-64390000D02*
X142390000Y-64390000D01*
%TO.N,GND*%
X106140000Y-76390000D02*
X106140000Y-64140000D01*
%TO.N,Net-(U1-SCL)*%
X166930000Y-93368349D02*
X166930000Y-86140000D01*
%TO.N,GND*%
X121250000Y-59700000D02*
X121250000Y-70890000D01*
%TO.N,Net-(U1-ALERT{slash}RDY)*%
X161850000Y-86140000D02*
X158045000Y-86140000D01*
%TO.N,Net-(J1-Pin_2)*%
X115640000Y-85140000D02*
X115390000Y-84890000D01*
X108890000Y-70890000D02*
X108890000Y-67640000D01*
X108390000Y-93147919D02*
X109687919Y-91850000D01*
%TO.N,Net-(U1-VDD)*%
X155830000Y-96038346D02*
X155830000Y-91330000D01*
%TO.N,Net-(A1-GPIO6)*%
X116960000Y-107430000D02*
X120500000Y-103890000D01*
%TO.N,Net-(J1-Pin_2)*%
X109187919Y-104890000D02*
X110390000Y-104890000D01*
X107890000Y-123390000D02*
X107890000Y-119187919D01*
%TO.N,GND*%
X123500000Y-126890000D02*
X108750000Y-126890000D01*
%TO.N,Net-(J1-Pin_2)*%
X111700000Y-118140000D02*
X113640000Y-116200000D01*
%TO.N,Net-(A1-AGND)*%
X140640000Y-66140000D02*
X140640000Y-82755000D01*
%TO.N,Net-(U1-SCL)*%
X158658349Y-101640000D02*
X166930000Y-93368349D01*
%TO.N,Net-(J1-Pin_2)*%
X115390000Y-72890000D02*
X110890000Y-72890000D01*
%TO.N,GND*%
X111390000Y-51850000D02*
X113040000Y-51850000D01*
%TO.N,Net-(J1-Pin_2)*%
X110187919Y-54390000D02*
X111390000Y-54390000D01*
X115390000Y-60640000D02*
X110140000Y-60640000D01*
%TO.N,+3.3V*%
X144381370Y-76940000D02*
X143250000Y-76940000D01*
%TO.N,Net-(A1-AGND)*%
X143538428Y-84560000D02*
X143250000Y-84560000D01*
%TO.N,Net-(A1-GPIO6)*%
X120500000Y-89140000D02*
X122540000Y-87100000D01*
%TO.N,Net-(J1-Pin_2)*%
X109090000Y-80580862D02*
X110780862Y-78890000D01*
X116640000Y-100140000D02*
X116640000Y-98890000D01*
%TO.N,Net-(A1-AGND)*%
X163750000Y-85352994D02*
X162537006Y-84140000D01*
%TO.N,Net-(U1-VDD)*%
X155830000Y-91330000D02*
X153890000Y-89390000D01*
%TO.N,Net-(A1-GPIO16)*%
X155050000Y-108590000D02*
X155050000Y-102590000D01*
%TO.N,Net-(J1-Pin_2)*%
X113640000Y-116200000D02*
X113640000Y-111890000D01*
%TO.N,Net-(A1-GPIO16)*%
X155050000Y-102590000D02*
X152550000Y-100090000D01*
%TO.N,Net-(J1-Pin_2)*%
X110140000Y-60640000D02*
X108390000Y-58890000D01*
%TO.N,Net-(A1-GPIO17)*%
X151850000Y-107790000D02*
X147140000Y-112500000D01*
%TO.N,Net-(J1-Pin_2)*%
X116390000Y-64640000D02*
X116390000Y-61640000D01*
%TO.N,Net-(A1-GPIO7)*%
X122250000Y-116640000D02*
X122250000Y-90390000D01*
%TO.N,Net-(A1-GPIO16)*%
X148600000Y-115040000D02*
X155050000Y-108590000D01*
%TO.N,Net-(J1-Pin_2)*%
X109090000Y-84840000D02*
X109090000Y-80580862D01*
X108140000Y-110890000D02*
X108140000Y-105937919D01*
%TO.N,Net-(A1-AGND)*%
X140640000Y-82755000D02*
X142445000Y-84560000D01*
%TD*%
M02*
